IKResults-ET3
version=1
nRows=19
nColumns=24
inDegrees=yes

Units are S.I. units (second, meters, Newtons, ...)
If the header above contains a line with 'inDegrees', this indicates whether rotational values are in degrees (yes) or radians (no).

endheader
time	pelvis_tilt	pelvis_list	pelvis_rotation	pelvis_tx	pelvis_ty	pelvis_tz	hip_flexion_r	hip_adduction_r	hip_rotation_r	knee_angle_r	ankle_angle_r	subtalar_angle_r	mtp_angle_r	hip_flexion_l	hip_adduction_l	hip_rotation_l	knee_angle_l	ankle_angle_l	subtalar_angle_l	mtp_angle_l	lumbar_extension	lumbar_bending	lumbar_rotation
      4.15000000	      1.68935844	     -4.53281852	    170.36732626	      1.36932738	      0.95756699	     -0.18268654	     -8.86189415	     -5.61080991	      1.41805108	    -39.83670004	      3.52486684	     17.08787953	      0.00000000	     31.13461644	      4.88331597	     -3.80549805	    -18.13566143	      2.43851456	     -5.33042679	      0.00000000	    -11.72196019	     -9.58521824	     11.67129238
      4.16000000	      1.56662780	     -5.38668741	    170.75150599	      1.35224659	      0.95825521	     -0.18073879	     -7.48108687	     -7.01763731	      0.64468254	    -43.13716260	      0.54079240	     17.39435730	      0.00000000	     30.93814961	      6.05060328	     -3.89580884	    -19.33224040	      1.02504668	     -6.26453228	      0.00000000	    -11.64076450	    -10.66633247	     10.87921556
      4.17000000	      1.44424564	     -6.10712647	    171.21510594	      1.33578096	      0.95906041	     -0.17885609	     -5.95265487	     -8.23287660	      0.04085120	    -46.49886481	     -3.07280329	     16.76329282	      0.00000000	     30.66519965	      7.03512427	     -4.32998789	    -20.46251708	      0.50850387	     -6.09222260	      0.00000000	    -11.73041017	    -11.44625177	     10.28500133
      4.18000000	      1.24059868	     -6.75953720	    171.72028795	      1.31980617	      0.96040810	     -0.17699939	     -4.39994747	     -9.22620446	     -0.24357348	    -49.83862857	     -6.26382922	     15.21355179	      0.00000000	     30.20486077	      7.97467776	     -4.98003705	    -21.48614882	      0.71042908	     -4.96586440	      0.00000000	    -11.99089180	    -12.19577823	      9.47840639
      4.19000000	      0.98181675	     -7.37681621	    172.33157470	      1.30406033	      0.96211139	     -0.17485351	     -2.90955704	    -10.15653088	     -0.54504028	    -52.94758778	     -8.80154666	     13.68239672	      0.00000000	     29.55891742	      8.98086675	     -5.52663083	    -22.44887866	      1.59476440	     -3.28240518	      0.00000000	    -12.37268124	    -12.85295424	      8.48250474
      4.20000000	      0.75273597	     -7.90080140	    172.92379017	      1.28909060	      0.96397887	     -0.17303346	     -1.30899720	    -10.89431927	     -0.73745403	    -55.93196424	     -8.74710145	     11.64982562	      0.00000000	     28.87356944	      9.88170590	     -5.81729871	    -23.32719498	      2.65381610	     -2.08688851	      0.00000000	    -12.79859164	    -13.42043283	      7.47264692
      4.21000000	      0.51875942	     -8.23144675	    173.43663868	      1.27447436	      0.96620100	     -0.17144577	      0.39982036	    -11.31154202	     -0.79495223	    -59.03028240	     -6.64242343	      9.90496729	      0.00000000	     28.04087707	     10.62724819	     -5.85630375	    -23.99161255	      3.70855215	     -1.22964444	      0.00000000	    -13.24092869	    -13.70881017	      6.44652370
      4.22000000	      0.28796114	     -8.41960363	    173.95234705	      1.26008042	      0.96876931	     -0.16992023	      2.10242364	    -11.49511975	     -0.74593680	    -61.57703980	     -5.17619489	      7.85835146	      0.00000000	     27.06245682	     11.27056759	     -5.57896983	    -24.44428946	      4.68463156	     -0.77685965	      0.00000000	    -13.67459468	    -13.80364570	      5.58145546
      4.23000000	      0.01696111	     -8.52395934	    174.40996983	      1.24580063	      0.97164350	     -0.16844735	      3.82674016	    -11.55470091	     -0.59637304	    -63.76781931	     -3.94532094	      5.81025864	      0.00000000	     25.88894210	     11.84787982	     -5.18369731	    -24.59273311	      5.47907791	     -0.61471390	      0.00000000	    -14.13329211	    -13.76408701	      4.78543320
      4.24000000	     -0.27109533	     -8.48616079	    174.78500925	      1.23157304	      0.97477281	     -0.16720998	      5.56119022	    -11.43669784	     -0.41209850	    -65.52182312	     -3.22508194	      3.44734646	      0.00000000	     24.61099091	     12.23427825	     -4.75852073	    -24.65774760	      6.31056035	     -0.41034890	      0.00000000	    -14.54918918	    -13.54566912	      4.11697255
      4.25000000	     -0.51447346	     -8.34105776	    175.08436547	      1.21742403	      0.97805819	     -0.16606119	      7.31999893	    -11.16437901	     -0.13924885	    -66.86019032	     -2.76844842	      0.98373730	      0.00000000	     23.24980298	     12.47402076	     -4.26665549	    -24.49204197	      7.05747081	     -0.27878977	      0.00000000	    -14.86335881	    -13.19402136	      3.56047169
      4.26000000	     -0.71773402	     -8.10310457	    175.35611460	      1.20331115	      0.98142562	     -0.16495079	      9.02548551	    -10.74815774	      0.15268507	    -67.74452553	     -2.15847464	     -1.28310128	      0.00000000	     21.86745888	     12.57026841	     -3.80986758	    -24.24236698	      7.83005295	      0.00379155	      0.00000000	    -15.09617675	    -12.73138369	      3.10976876
      4.27000000	     -0.86947482	     -7.84399763	    175.53805336	      1.18927541	      0.98478188	     -0.16395478	     10.80470100	    -10.32692422	      0.42137334	    -68.28194063	     -1.80717202	     -2.96533899	      0.00000000	     20.47990623	     12.59134917	     -3.39412008	    -23.84533635	      8.51913092	      0.27215121	      0.00000000	    -15.22893496	    -12.26331631	      2.80147311
      4.28000000	     -1.07241985	     -7.56361479	    175.89548967	      1.17466269	      0.98827607	     -0.16247044	     12.33770103	    -10.01172463	      0.36331977	    -68.37432107	     -0.77300396	     -3.80722134	      0.00000000	     18.94863821	     12.65457280	     -2.78350077	    -23.39049585	      9.13820360	      0.31961127	      0.00000000	    -15.31904953	    -11.66681338	      2.66061727
      4.29000000	     -1.20060769	     -7.28151906	    176.05624390	      1.16070737	      0.99148161	     -0.16161309	     14.03093782	     -9.55870637	      0.56837401	    -68.22224960	     -0.00789746	     -4.84908968	      0.00000000	     17.59886949	     12.56564207	     -2.44370877	    -23.01776456	      9.89767780	      0.91413429	      0.00000000	    -15.37672998	    -11.23461418	      2.35973437
      4.30000000	     -1.37564598	     -7.04788401	    176.32709551	      1.14665322	      0.99461151	     -0.16048845	     15.50458546	     -9.25998080	      0.57423790	    -67.64885130	      1.37985822	     -5.30697680	      0.00000000	     16.07175941	     12.59594172	     -1.76326667	    -22.39566009	     10.34925332	      0.88920157	      0.00000000	    -15.47286264	    -10.76265036	      2.27422420
      4.31000000	     -1.58151729	     -6.86273618	    176.65162731	      1.13256723	      0.99757825	     -0.15930141	     16.87301727	     -9.04784584	      0.51193396	    -66.80421803	      2.91477258	     -5.45166445	      0.00000000	     14.56938446	     12.63594659	     -1.25106673	    -21.87749628	     10.84742558	      1.06926053	      0.00000000	    -15.62874703	    -10.34479176	      2.13302810
      4.32000000	     -1.78063239	     -6.70433178	    177.02116157	      1.11862847	      1.00037794	     -0.15815516	     18.13225939	     -8.86792259	      0.41778229	    -65.64090747	      4.67316698	     -4.46754020	      0.00000000	     12.92413606	     12.72911008	     -0.38957900	    -21.02168511	     11.20232753	      1.07823867	      0.00000000	    -15.78074899	    -10.03071964	      1.77177716
      4.33000000	     -2.02863805	     -6.46980797	    177.54339217	      1.10439262	      1.00301430	     -0.15692777	     19.14818862	     -8.63718085	      0.20309289	    -64.07971838	      6.00964048	     -3.57984287	      0.00000000	     11.27038298	     12.67938874	      0.27846320	    -20.35636788	     11.71906368	      1.45175361	      0.00000000	    -15.96249305	     -9.59268238	      1.42495360
